<svg version="1.1" id="Layer_1" xmlns="http://www.w3.org/2000/svg" xmlns:xlink="http://www.w3.org/1999/xlink" x="0px" y="0px"
	 width="100%" viewBox="0 0 5573 1013" enable-background="new 0 0 5573 1013" xml:space="preserve">
<path fill="#FFFFFF" opacity="1.000000" stroke="none" 
	d="
M4206.000000,1016.000000 
	C2804.000244,1016.000000 1403.000366,1016.000000 2.000376,1016.000000 
	C2.000251,678.000183 2.000251,340.000427 2.000125,2.000467 
	C1859.999512,2.000311 3717.999023,2.000311 5575.999023,2.000156 
	C5575.999023,339.999542 5575.999023,677.999084 5575.999512,1015.999268 
	C5119.666504,1016.000000 4663.333496,1016.000000 4206.000000,1016.000000 
M492.371857,963.927368 
	C492.371857,963.927368 492.689209,963.436157 492.450867,962.301819 
	C491.656799,961.497192 490.862701,960.692627 489.855164,958.976685 
	C489.569092,958.373047 489.104919,957.979370 488.241333,956.503967 
	C486.869080,954.910400 485.496857,953.316772 483.717255,950.417908 
	C479.442200,943.663513 474.932495,937.044922 470.931793,930.131775 
	C451.156921,895.960754 439.887054,859.520691 441.941132,819.604492 
	C443.403687,791.182617 451.618561,764.642456 464.507019,739.459534 
	C482.954926,703.414124 508.818634,673.131409 537.976013,645.432922 
	C548.035400,635.876831 558.033020,626.255798 568.817139,616.936157 
	C570.536255,616.089294 572.427673,615.476868 573.948181,614.359680 
	C592.079712,601.037292 610.156067,587.639832 629.645447,574.128479 
	C634.034424,571.339050 638.423401,568.549622 642.812439,565.760193 
	C635.628479,564.193909 630.936279,568.552002 624.256836,571.797729 
	C609.373596,579.453735 594.490295,587.109741 578.656616,595.059998 
	C578.656616,595.059998 578.019958,595.824524 576.574707,596.000122 
	C570.970093,599.269409 565.365479,602.538757 559.922668,605.919800 
	C559.922668,605.919800 559.877502,605.728455 558.527466,605.881836 
	C555.580688,607.829163 552.633972,609.776428 549.869568,611.836426 
	C549.869568,611.836426 549.820557,611.627747 548.380249,611.813599 
	C543.391663,615.006348 538.403015,618.199158 533.675171,621.689819 
	C533.675171,621.689819 533.541260,621.317200 532.207153,621.574829 
	C529.344971,623.608215 526.482788,625.641541 523.805908,627.790039 
	C523.805908,627.790039 523.768311,627.575073 522.399597,627.801453 
	C518.783020,630.399048 515.166443,632.996643 511.751160,635.717224 
	C511.751160,635.717224 511.699188,635.487122 510.328949,635.692322 
	C506.744049,638.341675 503.159119,640.991028 499.762024,643.728821 
	C499.762024,643.728821 499.734497,643.523071 498.466614,643.755798 
	C496.876068,645.092163 495.285522,646.428528 493.915009,647.917114 
	C493.915009,647.917114 493.778809,647.686768 492.467651,647.947144 
	C490.092468,649.872314 487.717285,651.797485 484.310883,654.048523 
	C483.552948,654.803711 482.795044,655.558960 480.848938,656.492798 
	C479.716003,657.584351 478.583099,658.675842 476.640289,659.875854 
	C476.089050,660.105103 475.755890,660.512634 474.430084,661.537781 
	C472.901398,662.985840 471.372711,664.433838 469.982727,665.994507 
	C469.982727,665.994507 469.895050,665.838806 468.700378,666.085083 
	C467.652069,667.268860 466.603729,668.452576 465.745087,669.725769 
	C465.745087,669.725769 465.718964,669.517761 464.433167,669.836670 
	C462.209717,671.859131 459.986237,673.881592 456.866821,676.122864 
	C456.279907,676.437683 455.933716,676.923889 454.589600,677.926208 
	C452.500122,679.985779 450.410675,682.045349 447.217743,684.599609 
	C446.168182,685.797974 445.118622,686.996277 442.935516,688.496216 
	C441.969727,689.671814 441.003937,690.847412 439.999420,692.000000 
	C439.999420,692.000000 440.023193,692.038086 438.833313,692.421631 
	C437.231293,694.286011 435.629272,696.150391 433.999878,698.000000 
	C433.999878,698.000000 434.014862,698.027161 432.830688,698.415100 
	C431.281189,700.299744 429.731689,702.184387 427.134247,704.539246 
	C425.982941,706.023315 424.831604,707.507385 422.529938,709.608093 
	C422.040588,710.312927 421.551239,711.017761 420.349335,712.053528 
	C420.349335,712.053528 420.078430,712.791077 419.044891,713.261169 
	C417.987610,714.810608 416.930328,716.359985 416.000977,717.991211 
	C416.000977,717.991211 415.904968,717.873291 414.734283,718.361755 
	C413.673370,720.159058 412.612457,721.956360 411.755219,723.772034 
	C411.755219,723.772034 411.660919,723.590576 410.517548,724.007629 
	C409.662964,725.333618 408.808380,726.659668 406.840637,728.711792 
	C396.639954,742.345947 387.882172,756.794617 381.536194,772.664795 
	C368.195465,806.027771 367.319366,839.332520 381.802582,872.588013 
	C388.632660,888.270813 397.885284,902.448486 409.180176,915.257202 
	C429.934448,938.793030 453.810699,958.582703 481.674988,975.481506 
	C482.462921,975.778503 483.250824,976.075562 484.523376,977.193848 
	C484.997589,977.664551 485.568268,977.917969 487.033630,978.979004 
	C498.890503,985.899597 510.747375,992.820251 522.604248,999.740845 
	C522.986755,999.205261 523.369324,998.669617 523.751831,998.133972 
	C514.537659,988.037415 505.323456,977.940857 495.903198,966.930725 
	C495.620575,966.325867 495.159546,965.927490 494.257111,964.682861 
	C493.705658,964.251953 493.154205,963.821045 492.371857,963.927368 
M818.456055,397.762909 
	C817.631775,398.103729 816.807434,398.444550 814.671448,399.078979 
	C760.355530,428.156860 704.489014,453.946320 647.689941,477.751190 
	C601.362976,497.167084 554.908020,516.281677 508.697449,535.970337 
	C459.669189,556.859619 411.556854,579.651672 366.415955,608.216736 
	C337.160400,626.729675 311.051147,648.847473 291.662231,677.828369 
	C256.931824,729.740356 252.444504,783.500244 283.966400,838.611389 
	C292.961151,854.337341 304.534271,868.160583 319.609924,878.923340 
	C317.066986,873.958008 314.524048,868.992615 312.042694,862.592468 
	C308.590454,856.482544 307.938019,849.562866 306.684357,842.888977 
	C303.581604,826.371582 303.777771,809.830322 307.097534,793.303162 
	C312.643402,765.693481 325.202637,741.308411 341.257416,718.542236 
	C368.467194,679.957825 403.106018,649.081726 441.700897,622.389404 
	C492.758087,587.078064 547.969116,559.075989 603.126221,531.001343 
	C657.645935,503.251221 712.323364,475.791321 763.718323,442.391266 
	C772.690613,436.560425 781.393921,430.315430 790.140503,424.186615 
	C790.140503,424.186615 790.172791,424.283569 791.257507,424.198639 
	C799.758606,418.332123 808.259705,412.465637 816.746582,406.720276 
	C816.746582,406.720276 816.866943,406.700714 817.709351,406.314789 
	C819.142029,404.866913 820.574768,403.419006 823.438110,401.848846 
	C831.622559,395.874542 839.807007,389.900238 849.205566,383.489655 
	C851.684692,381.512451 854.163757,379.535278 856.642883,377.558075 
	C856.123535,376.909363 855.604187,376.260651 855.084839,375.611938 
	C851.958618,377.622467 848.832336,379.632996 844.398438,382.155518 
	C838.896362,385.413361 833.394226,388.671204 826.615662,392.155945 
	C824.345886,393.952026 822.076111,395.748138 818.456055,397.762909 
M598.541199,145.807144 
	C597.013733,145.951981 595.486267,146.096817 592.133606,145.851532 
	C560.952576,146.290848 530.410828,151.290817 500.451965,159.593765 
	C416.627441,182.825363 346.822693,228.152481 292.360138,295.798279 
	C226.474350,377.632507 197.087845,471.687866 203.035858,576.643188 
	C205.179398,614.467041 213.046356,651.159180 225.717667,686.835693 
	C226.862381,690.058655 228.258453,693.192322 229.537796,696.367493 
	C234.446991,664.957581 247.651703,638.480591 267.510803,615.239502 
	C282.951843,597.168762 300.994507,581.883606 320.628143,568.468445 
	C363.246521,539.348511 409.549622,517.254395 457.483093,498.807831 
	C520.239685,474.656677 583.608826,452.100769 646.639587,428.657440 
	C695.963440,410.312164 744.928284,391.057556 792.034363,367.451630 
	C823.969238,351.448334 854.884521,333.778351 881.847168,309.965820 
	C910.513428,284.648773 927.867371,253.523743 930.942261,213.230804 
	C928.895325,216.828445 927.500244,218.984985 926.390198,221.279434 
	C919.551025,235.415543 909.078979,246.422562 896.788696,255.885529 
	C894.164001,257.906403 891.699951,260.393951 887.245056,257.554230 
	C833.402527,206.422775 770.422913,172.184814 698.006531,155.589859 
	C671.023987,149.406540 643.753784,145.172592 614.603577,145.505432 
	C609.752686,145.716370 604.901855,145.927322 598.541199,145.807144 
M1010.096375,504.653931 
	C1007.481750,479.488068 1002.486023,454.789093 994.537781,430.782257 
	C990.389160,418.251740 985.162170,406.078247 980.328247,392.245178 
	C978.406860,388.181091 978.463013,384.384827 980.005127,379.920776 
	C990.086670,350.736908 995.459167,320.751587 994.357971,289.742859 
	C992.620605,240.819962 976.073181,198.123672 941.087524,163.273453 
	C936.693665,158.896561 931.275513,155.547897 925.998230,150.413895 
	C922.780212,146.477509 919.266174,143.046143 912.587585,142.216888 
	C916.739319,147.835831 919.987671,152.368515 923.395386,156.778030 
	C924.789307,158.581696 926.527954,160.118866 928.685486,163.039612 
	C963.417358,214.450638 965.328003,267.774933 938.325928,322.971191 
	C926.081543,348.000458 910.071899,370.430786 892.208862,391.625885 
	C856.847656,433.582886 816.086670,469.996735 773.781311,504.596008 
	C720.151062,548.457397 665.645264,591.248108 611.521240,634.505859 
	C592.237549,649.918030 573.483459,665.874939 558.024414,685.330383 
	C526.219788,725.356750 505.934570,769.661011 507.747803,821.972290 
	C509.088287,860.644043 523.959717,893.166870 554.184021,917.723511 
	C589.186279,946.162109 629.786377,955.890198 674.079956,950.731323 
	C703.030884,947.359375 730.734985,938.759399 757.648926,927.829285 
	C846.708191,891.661072 914.874268,831.586365 962.063171,747.864502 
	C990.102600,698.117493 1006.231445,644.530701 1011.343018,587.766479 
	C1012.827271,571.283508 1011.904541,554.583801 1012.393494,536.291077 
	C1012.185669,532.873962 1011.977905,529.456909 1012.022705,524.290222 
	C1011.325623,518.345459 1010.628540,512.400635 1010.096375,504.653931 
M790.208984,128.988708 
	C792.809509,135.108414 786.147217,137.218414 784.416626,141.257416 
	C791.413879,148.645401 791.404297,148.646454 792.604797,159.565277 
	C792.859619,161.882996 792.915161,164.285324 793.615479,166.471558 
	C794.174561,168.216965 795.230408,170.181580 796.667908,171.193649 
	C800.412720,173.830231 804.488525,175.996704 809.325256,178.883667 
	C813.157654,150.665253 816.843262,123.527954 820.757874,94.703873 
	C838.909485,103.877823 855.390503,112.207497 871.731018,120.466125 
	C872.085999,127.923309 872.175232,134.581726 872.773254,141.194107 
	C873.589905,150.224564 874.268738,150.768066 883.739197,153.204544 
	C883.951538,152.964584 884.199890,152.747742 884.370972,152.481323 
	C889.351746,144.726974 884.172729,131.398010 897.807251,128.263611 
	C897.124268,126.425858 896.448608,124.607788 895.580383,122.271690 
	C901.867371,116.595329 908.229370,110.851204 914.574829,105.122040 
	C908.896912,97.081177 902.115967,97.721596 895.229858,101.923950 
	C884.256104,108.620819 874.395447,108.921410 865.532471,98.356964 
	C863.865173,96.369545 861.319885,95.125587 859.204712,93.505844 
	C851.109985,87.307045 843.025452,81.094879 833.710266,73.946167 
	C857.865662,58.017242 880.804199,42.890762 903.886658,27.669371 
	C891.339722,16.262997 891.042725,15.787421 877.428040,21.833605 
	C871.186096,24.605595 866.102173,23.302834 859.876648,20.052181 
	C859.097961,29.860830 851.467712,30.882334 845.204895,34.235111 
	C837.871826,38.160755 831.391846,35.289711 824.038513,33.228046 
	C823.542908,36.795952 823.165039,39.515972 822.761169,42.423485 
	C818.695923,44.057114 814.541199,45.373810 810.721680,47.341206 
	C804.404236,50.595268 799.338928,49.469875 793.327820,45.605400 
	C783.881836,39.532688 773.694946,34.499390 763.467102,29.797459 
	C757.161255,26.898544 749.396667,26.315708 745.235718,32.706329 
	C740.995667,39.218399 745.328003,45.887814 750.242249,50.499474 
	C756.507568,56.379105 763.041992,62.833977 770.709412,66.172058 
	C785.172180,72.468521 788.442932,83.297211 787.266479,97.196014 
	C787.238953,97.521057 787.166016,97.842255 787.071777,98.430405 
	C785.126831,100.742752 779.621338,100.573792 781.286438,106.494377 
	C788.699585,109.354492 790.088379,115.892319 789.747253,123.328667 
	C789.686768,124.646561 789.975586,125.980484 790.208984,128.988708 
z"/>
<path fill="#0396FE" opacity="1.000000" stroke="none" 
	d="
M1012.085144,537.983459 
	C1011.904541,554.583801 1012.827271,571.283508 1011.343018,587.766479 
	C1006.231445,644.530701 990.102600,698.117493 962.063171,747.864502 
	C914.874268,831.586365 846.708191,891.661072 757.648926,927.829285 
	C730.734985,938.759399 703.030884,947.359375 674.079956,950.731323 
	C629.786377,955.890198 589.186279,946.162109 554.184021,917.723511 
	C523.959717,893.166870 509.088287,860.644043 507.747803,821.972290 
	C505.934570,769.661011 526.219788,725.356750 558.024414,685.330383 
	C573.483459,665.874939 592.237549,649.918030 611.521240,634.505859 
	C665.645264,591.248108 720.151062,548.457397 773.781311,504.596008 
	C816.086670,469.996735 856.847656,433.582886 892.208862,391.625885 
	C910.071899,370.430786 926.081543,348.000458 938.325928,322.971191 
	C965.328003,267.774933 963.417358,214.450638 928.353271,161.755722 
	C927.893921,157.471359 923.065918,155.378448 926.331909,151.722855 
	C931.275513,155.547897 936.693665,158.896561 941.087524,163.273453 
	C976.073181,198.123672 992.620605,240.819962 994.357971,289.742859 
	C995.459167,320.751587 990.086670,350.736908 980.005127,379.920776 
	C978.463013,384.384827 978.406860,388.181091 979.604004,393.136322 
	C976.116394,395.060242 973.353088,396.092987 971.739807,396.695953 
	C969.241028,402.313812 967.659363,407.089630 965.131348,411.296875 
	C960.044800,419.762299 954.513794,427.965210 949.039490,436.192139 
	C933.926697,458.904236 915.840515,479.214233 897.574707,499.352936 
	C887.307007,510.673431 876.938904,521.929504 866.116577,532.713379 
	C853.404602,545.380127 840.149841,557.502075 827.132996,569.862976 
	C823.085144,573.706909 819.130066,577.653320 814.987244,581.391846 
	C797.252991,597.395630 779.486389,613.363770 761.688232,629.296631 
	C749.328979,640.360596 736.899170,651.345703 724.501099,662.366211 
	C706.900940,678.010681 689.101074,693.438232 671.775146,709.380737 
	C661.239624,719.075012 651.578796,729.712708 641.264771,739.656738 
	C629.669312,750.836365 620.329224,763.642761 613.324890,778.049805 
	C605.199036,794.763550 603.174438,813.011475 606.957214,830.640381 
	C612.593262,856.906250 632.674988,869.996582 656.763550,878.028076 
	C671.633789,882.986023 686.950806,881.906555 702.204102,882.002380 
	C721.447266,882.123291 739.654358,876.464172 757.220337,869.906250 
	C771.749634,864.482117 785.071411,855.798401 798.833374,848.382935 
	C800.214661,847.638672 800.938904,845.674866 802.400452,843.689880 
	C800.272827,842.882751 799.140747,842.268494 797.933899,842.024536 
	C787.567078,839.929138 777.075439,838.340332 766.836243,835.749939 
	C751.140015,831.778931 745.161072,818.755249 751.007629,803.725769 
	C757.115784,788.023560 769.612488,777.182251 780.432983,765.311829 
	C790.654907,754.098083 802.975220,744.799072 814.354980,734.638184 
	C821.534607,728.227539 828.636414,721.729126 835.853333,715.361023 
	C851.764648,701.320984 867.771362,687.388733 883.651123,673.313232 
	C892.842834,665.165955 902.016968,656.987366 910.925842,648.535034 
	C924.369690,635.780029 938.144287,623.299316 950.696594,609.703308 
	C960.320679,599.279053 968.631897,587.566345 976.867920,575.959106 
	C984.721802,564.890442 992.010071,553.387390 998.943726,541.716797 
	C1001.387024,537.604309 1000.953491,531.598755 1003.756165,527.923767 
	C1008.797485,521.313416 1009.021667,513.921265 1009.931519,506.455872 
	C1010.628540,512.400635 1011.325623,518.345459 1011.385559,525.686035 
	C1009.980469,530.864563 1008.687805,534.711548 1012.085144,537.983459 
z"/>
<path fill="#FE8803" opacity="1.000000" stroke="none" 
	d="
M887.895386,258.786804 
	C891.699951,260.393951 894.164001,257.906403 896.788696,255.885529 
	C909.078979,246.422562 919.551025,235.415543 926.390198,221.279434 
	C927.500244,218.984985 928.895325,216.828445 930.942261,213.230804 
	C927.867371,253.523743 910.513428,284.648773 881.847168,309.965820 
	C854.884521,333.778351 823.969238,351.448334 792.034363,367.451630 
	C744.928284,391.057556 695.963440,410.312164 646.639587,428.657440 
	C583.608826,452.100769 520.239685,474.656677 457.483093,498.807831 
	C409.549622,517.254395 363.246521,539.348511 320.628143,568.468445 
	C300.994507,581.883606 282.951843,597.168762 267.510803,615.239502 
	C247.651703,638.480591 234.446991,664.957581 229.537796,696.367493 
	C228.258453,693.192322 226.862381,690.058655 225.717667,686.835693 
	C213.046356,651.159180 205.179398,614.467041 203.035858,576.643188 
	C197.087845,471.687866 226.474350,377.632507 292.360138,295.798279 
	C346.822693,228.152481 416.627441,182.825363 500.451965,159.593765 
	C530.410828,151.290817 560.952576,146.290848 592.655273,146.686646 
	C591.429077,148.336014 589.733887,149.707581 587.925354,149.878265 
	C569.986450,151.571259 552.718567,156.341324 535.749146,161.932968 
	C504.694946,172.165695 475.763824,187.076630 448.331268,204.698410 
	C423.637177,220.561096 402.108063,240.281586 381.520050,261.195801 
	C365.095978,277.880127 350.975372,296.308533 338.404327,315.795532 
	C324.895416,336.736389 314.435120,359.390930 305.956238,382.929840 
	C294.414459,414.971832 290.489868,448.004211 292.119293,481.842621 
	C292.173645,482.971313 292.960144,484.064819 293.839203,486.256287 
	C295.694550,483.423889 297.088654,481.663116 298.093170,479.702667 
	C304.822571,466.569489 313.323303,454.727783 324.297119,444.855774 
	C328.957306,440.663483 334.409058,437.361725 339.405579,433.530670 
	C358.783813,418.672638 380.431732,407.993927 403.148499,399.478058 
	C417.408783,394.132355 431.847931,389.139618 446.478577,384.933716 
	C471.955933,377.609711 497.475250,370.293549 523.283691,364.293396 
	C558.081604,356.203369 593.172302,349.374176 628.132568,341.981232 
	C654.677673,336.367767 681.306946,331.114838 707.734680,324.993408 
	C747.806152,315.711761 787.505066,304.898926 825.909851,290.076111 
	C845.030884,282.696106 863.453491,273.485046 882.056519,264.811462 
	C884.424377,263.707458 885.969238,260.838226 887.895386,258.786804 
z"/>
<path fill="#F97101" opacity="1.000000" stroke="none" 
	d="
M887.570190,258.170502 
	C885.969238,260.838226 884.424377,263.707458 882.056519,264.811462 
	C863.453491,273.485046 845.030884,282.696106 825.909851,290.076111 
	C787.505066,304.898926 747.806152,315.711761 707.734680,324.993408 
	C681.306946,331.114838 654.677673,336.367767 628.132568,341.981232 
	C593.172302,349.374176 558.081604,356.203369 523.283691,364.293396 
	C497.475250,370.293549 471.955933,377.609711 446.478577,384.933716 
	C431.847931,389.139618 417.408783,394.132355 403.148499,399.478058 
	C380.431732,407.993927 358.783813,418.672638 339.405579,433.530670 
	C334.409058,437.361725 328.957306,440.663483 324.297119,444.855774 
	C313.323303,454.727783 304.822571,466.569489 298.093170,479.702667 
	C297.088654,481.663116 295.694550,483.423889 293.839203,486.256287 
	C292.960144,484.064819 292.173645,482.971313 292.119293,481.842621 
	C290.489868,448.004211 294.414459,414.971832 305.956238,382.929840 
	C314.435120,359.390930 324.895416,336.736389 338.404327,315.795532 
	C350.975372,296.308533 365.095978,277.880127 381.520050,261.195801 
	C402.108063,240.281586 423.637177,220.561096 448.331268,204.698410 
	C475.763824,187.076630 504.694946,172.165695 535.749146,161.932968 
	C552.718567,156.341324 569.986450,151.571259 587.925354,149.878265 
	C589.733887,149.707581 591.429077,148.336014 593.567871,146.881714 
	C595.486267,146.096817 597.013733,145.951981 599.838623,146.516006 
	C606.147095,148.018829 611.204041,149.442139 615.917114,146.147415 
	C643.753784,145.172592 671.023987,149.406540 698.006531,155.589859 
	C770.422913,172.184814 833.402527,206.422775 887.570190,258.170502 
z"/>
<path fill="#008BF2" opacity="1.000000" stroke="none" 
	d="
M1010.013916,505.554901 
	C1009.021667,513.921265 1008.797485,521.313416 1003.756165,527.923767 
	C1000.953491,531.598755 1001.387024,537.604309 998.943726,541.716797 
	C992.010071,553.387390 984.721802,564.890442 976.867920,575.959106 
	C968.631897,587.566345 960.320679,599.279053 950.696594,609.703308 
	C938.144287,623.299316 924.369690,635.780029 910.925842,648.535034 
	C902.016968,656.987366 892.842834,665.165955 883.651123,673.313232 
	C867.771362,687.388733 851.764648,701.320984 835.853333,715.361023 
	C828.636414,721.729126 821.534607,728.227539 814.354980,734.638184 
	C802.975220,744.799072 790.654907,754.098083 780.432983,765.311829 
	C769.612488,777.182251 757.115784,788.023560 751.007629,803.725769 
	C745.161072,818.755249 751.140015,831.778931 766.836243,835.749939 
	C777.075439,838.340332 787.567078,839.929138 797.933899,842.024536 
	C799.140747,842.268494 800.272827,842.882751 802.400452,843.689880 
	C800.938904,845.674866 800.214661,847.638672 798.833374,848.382935 
	C785.071411,855.798401 771.749634,864.482117 757.220337,869.906250 
	C739.654358,876.464172 721.447266,882.123291 702.204102,882.002380 
	C686.950806,881.906555 671.633789,882.986023 656.763550,878.028076 
	C632.674988,869.996582 612.593262,856.906250 606.957214,830.640381 
	C603.174438,813.011475 605.199036,794.763550 613.324890,778.049805 
	C620.329224,763.642761 629.669312,750.836365 641.264771,739.656738 
	C651.578796,729.712708 661.239624,719.075012 671.775146,709.380737 
	C689.101074,693.438232 706.900940,678.010681 724.501099,662.366211 
	C736.899170,651.345703 749.328979,640.360596 761.688232,629.296631 
	C779.486389,613.363770 797.252991,597.395630 814.987244,581.391846 
	C819.130066,577.653320 823.085144,573.706909 827.132996,569.862976 
	C840.149841,557.502075 853.404602,545.380127 866.116577,532.713379 
	C876.938904,521.929504 887.307007,510.673431 897.574707,499.352936 
	C915.840515,479.214233 933.926697,458.904236 949.039490,436.192139 
	C954.513794,427.965210 960.044800,419.762299 965.131348,411.296875 
	C967.659363,407.089630 969.241028,402.313812 971.739807,396.695953 
	C973.353088,396.092987 976.116394,395.060242 979.651001,393.885498 
	C985.162170,406.078247 990.389160,418.251740 994.537781,430.782257 
	C1002.486023,454.789093 1007.481750,479.488068 1010.013916,505.554901 
z"/>
<path fill="#058DF1" opacity="1.000000" stroke="none" 
	d="
M790.221436,424.261688 
	C781.393921,430.315430 772.690613,436.560425 763.718323,442.391266 
	C712.323364,475.791321 657.645935,503.251221 603.126221,531.001343 
	C547.969116,559.075989 492.758087,587.078064 441.700897,622.389404 
	C403.106018,649.081726 368.467194,679.957825 341.257416,718.542236 
	C325.202637,741.308411 312.643402,765.693481 307.097534,793.303162 
	C303.777771,809.830322 303.581604,826.371582 306.684357,842.888977 
	C307.938019,849.562866 308.590454,856.482544 311.314850,863.193054 
	C303.253571,858.827271 302.960785,849.656982 298.293732,842.976196 
	C294.423431,837.435791 291.971741,830.579285 290.236267,823.953674 
	C287.983612,815.353577 286.636932,806.451599 285.658325,797.595703 
	C283.587433,778.855286 282.054230,760.318970 287.515900,741.511414 
	C295.126831,715.302673 308.952240,693.269348 327.348236,673.568298 
	C345.348328,654.291199 365.295563,637.328674 387.088257,622.576843 
	C402.705811,612.005188 418.289948,601.263428 434.662323,591.958130 
	C454.778046,580.525024 475.696960,570.504578 496.273010,559.881775 
	C500.379028,557.761902 504.437256,555.533569 508.631775,553.603638 
	C532.992920,542.394775 557.437622,531.366333 581.751160,520.055725 
	C594.031067,514.343201 605.849609,507.581207 618.320862,502.353088 
	C632.371277,496.462891 646.699158,491.483948 660.390625,484.478943 
	C682.156555,473.342804 704.881897,464.087189 727.137695,453.896973 
	C730.391541,452.407166 733.192688,448.744629 736.377991,448.515442 
	C745.241211,447.877747 751.509399,442.209442 758.834412,438.622742 
	C762.046326,437.050049 766.078796,435.878235 768.034241,433.254242 
	C773.786743,425.535461 782.243896,425.754456 790.221436,424.261688 
z"/>
<path fill="#0996FA" opacity="1.000000" stroke="none" 
	d="
M790.180969,424.224152 
	C782.243896,425.754456 773.786743,425.535461 768.034241,433.254242 
	C766.078796,435.878235 762.046326,437.050049 758.834412,438.622742 
	C751.509399,442.209442 745.241211,447.877747 736.377991,448.515442 
	C733.192688,448.744629 730.391541,452.407166 727.137695,453.896973 
	C704.881897,464.087189 682.156555,473.342804 660.390625,484.478943 
	C646.699158,491.483948 632.371277,496.462891 618.320862,502.353088 
	C605.849609,507.581207 594.031067,514.343201 581.751160,520.055725 
	C557.437622,531.366333 532.992920,542.394775 508.631775,553.603638 
	C504.437256,555.533569 500.379028,557.761902 496.273010,559.881775 
	C475.696960,570.504578 454.778046,580.525024 434.662323,591.958130 
	C418.289948,601.263428 402.705811,612.005188 387.088257,622.576843 
	C365.295563,637.328674 345.348328,654.291199 327.348236,673.568298 
	C308.952240,693.269348 295.126831,715.302673 287.515900,741.511414 
	C282.054230,760.318970 283.587433,778.855286 285.658325,797.595703 
	C286.636932,806.451599 287.983612,815.353577 290.236267,823.953674 
	C291.971741,830.579285 294.423431,837.435791 298.293732,842.976196 
	C302.960785,849.656982 303.253571,858.827271 311.284058,863.910461 
	C314.524048,868.992615 317.066986,873.958008 319.609924,878.923340 
	C304.534271,868.160583 292.961151,854.337341 283.966400,838.611389 
	C252.444504,783.500244 256.931824,729.740356 291.662231,677.828369 
	C311.051147,648.847473 337.160400,626.729675 366.415955,608.216736 
	C411.556854,579.651672 459.669189,556.859619 508.697449,535.970337 
	C554.908020,516.281677 601.362976,497.167084 647.689941,477.751190 
	C704.489014,453.946320 760.355530,428.156860 815.341003,399.724579 
	C816.296021,402.480377 816.581421,404.590546 816.866943,406.700714 
	C816.866943,406.700714 816.746582,406.720276 816.001282,406.669434 
	C810.385132,409.139648 804.824524,410.883453 800.848022,414.412231 
	C797.263000,417.593628 791.521790,418.696930 790.172791,424.283569 
	C790.172791,424.283569 790.140503,424.186615 790.180969,424.224152 
z"/>
<path fill="#F77406" opacity="1.000000" stroke="none" 
	d="
M568.058899,616.664490 
	C558.033020,626.255798 548.035400,635.876831 537.976013,645.432922 
	C508.818634,673.131409 482.954926,703.414124 464.507019,739.459534 
	C451.618561,764.642456 443.403687,791.182617 441.941132,819.604492 
	C439.887054,859.520691 451.156921,895.960754 470.931793,930.131775 
	C474.932495,937.044922 479.442200,943.663513 484.063049,951.714233 
	C485.760101,954.605591 487.111359,956.200623 488.462616,957.795715 
	C489.104919,957.979370 489.569092,958.373047 489.970062,960.073730 
	C490.953033,961.925903 491.821136,962.681030 492.689209,963.436157 
	C492.689209,963.436157 492.371857,963.927368 492.519836,964.237000 
	C493.285217,964.942932 493.902679,965.339172 494.520142,965.735474 
	C495.159546,965.927490 495.620575,966.325867 495.872559,968.061829 
	C493.771027,974.371338 490.722260,970.820190 487.712585,969.463623 
	C486.334961,967.614136 485.326904,966.271790 484.115173,965.149170 
	C468.257843,950.455505 453.673798,934.508423 440.671478,917.325989 
	C428.696747,901.501648 419.180908,884.092712 411.983673,865.411987 
	C403.471558,843.318542 400.748322,820.513550 404.372498,797.421204 
	C407.679016,776.352905 416.469574,757.034607 427.960724,738.950012 
	C450.564697,703.376404 481.938782,676.349609 514.052429,650.049377 
	C523.515442,642.299377 533.310608,634.909607 543.347534,627.920410 
	C551.097717,622.523621 557.914062,615.260864 568.004944,614.357483 
	C567.941772,615.437622 567.958191,616.052185 568.058899,616.664490 
z"/>
<path fill="#0A98F9" opacity="1.000000" stroke="none" 
	d="
M790.156067,128.147858 
	C789.975586,125.980484 789.686768,124.646561 789.747253,123.328667 
	C790.088379,115.892319 788.699585,109.354492 781.286438,106.494377 
	C779.621338,100.573792 785.126831,100.742752 787.071777,98.430405 
	C787.166016,97.842255 787.238953,97.521057 787.266479,97.196014 
	C788.442932,83.297211 785.172180,72.468521 770.709412,66.172058 
	C763.041992,62.833977 756.507568,56.379105 750.242249,50.499474 
	C745.328003,45.887814 740.995667,39.218399 745.235718,32.706329 
	C749.396667,26.315708 757.161255,26.898544 763.467102,29.797459 
	C773.694946,34.499390 783.881836,39.532688 793.327820,45.605400 
	C799.338928,49.469875 804.404236,50.595268 810.721680,47.341206 
	C814.541199,45.373810 818.695923,44.057114 822.761169,42.423485 
	C823.165039,39.515972 823.542908,36.795952 824.038513,33.228046 
	C831.391846,35.289711 837.871826,38.160755 845.204895,34.235111 
	C851.467712,30.882334 859.097961,29.860830 859.876648,20.052181 
	C866.102173,23.302834 871.186096,24.605595 877.428040,21.833605 
	C891.042725,15.787421 891.339722,16.262997 903.886658,27.669371 
	C880.804199,42.890762 857.865662,58.017242 833.710266,73.946167 
	C843.025452,81.094879 851.109985,87.307045 859.204712,93.505844 
	C861.319885,95.125587 863.865173,96.369545 865.532471,98.356964 
	C874.395447,108.921410 884.256104,108.620819 895.229858,101.923950 
	C902.115967,97.721596 908.896912,97.081177 914.574829,105.122040 
	C908.229370,110.851204 901.867371,116.595329 895.580383,122.271690 
	C896.448608,124.607788 897.124268,126.425858 897.807251,128.263611 
	C884.172729,131.398010 889.351746,144.726974 884.370972,152.481323 
	C884.199890,152.747742 883.951538,152.964584 883.739197,153.204559 
	C874.268738,150.768066 873.589905,150.224564 872.773254,141.194107 
	C872.175232,134.581726 872.085999,127.923309 871.731018,120.466125 
	C855.390503,112.207497 838.909485,103.877823 820.757874,94.703873 
	C816.843262,123.527954 813.157654,150.665253 809.325256,178.883667 
	C804.488525,175.996704 800.412720,173.830231 796.667908,171.193649 
	C795.230408,170.181580 794.174561,168.216965 793.615479,166.471558 
	C792.915161,164.285324 792.859619,161.882996 792.604797,159.565277 
	C791.404297,148.646454 791.413879,148.645401 784.416626,141.257416 
	C786.147217,137.218414 792.809509,135.108414 790.156067,128.147858 
z"/>
<path fill="#FC8907" opacity="1.000000" stroke="none" 
	d="
M568.000183,613.894226 
	C557.914062,615.260864 551.097717,622.523621 543.347534,627.920410 
	C533.310608,634.909607 523.515442,642.299377 514.052429,650.049377 
	C481.938782,676.349609 450.564697,703.376404 427.960724,738.950012 
	C416.469574,757.034607 407.679016,776.352905 404.372498,797.421204 
	C400.748322,820.513550 403.471558,843.318542 411.983673,865.411987 
	C419.180908,884.092712 428.696747,901.501648 440.671478,917.325989 
	C453.673798,934.508423 468.257843,950.455505 484.115173,965.149170 
	C485.326904,966.271790 486.334961,967.614136 487.270569,969.807861 
	C487.372345,971.817871 487.314606,973.179749 487.967041,973.877869 
	C490.655029,976.754333 488.742218,977.424316 486.235413,977.954163 
	C485.568268,977.917969 484.997589,977.664551 483.947510,976.204712 
	C482.548279,974.963684 481.724915,974.711853 480.901520,974.460083 
	C453.810699,958.582703 429.934448,938.793030 409.180176,915.257202 
	C397.885284,902.448486 388.632660,888.270813 381.802582,872.588013 
	C367.319366,839.332520 368.195465,806.027771 381.536194,772.664795 
	C387.882172,756.794617 396.639954,742.345947 408.071472,728.260498 
	C410.088531,726.403015 410.874725,724.996826 411.660919,723.590576 
	C411.660919,723.590576 411.755219,723.772034 412.315247,723.604614 
	C413.885193,721.582520 414.895081,719.727905 415.904968,717.873291 
	C415.904968,717.873291 416.000977,717.991211 416.588379,717.910767 
	C418.143311,716.150513 419.110870,714.470825 420.078430,712.791077 
	C420.078430,712.791077 420.349335,712.053528 421.382996,711.709961 
	C422.837891,710.574707 423.259094,709.783081 423.680298,708.991455 
	C424.831604,707.507385 425.982941,706.023315 428.324066,704.222534 
	C431.014221,701.946228 432.514526,699.986694 434.014862,698.027161 
	C434.014862,698.027161 433.999878,698.000000 434.692139,697.948486 
	C436.930634,695.944031 438.476929,693.991089 440.023193,692.038086 
	C440.023193,692.038086 439.999420,692.000000 440.647034,691.942932 
	C442.219452,690.655457 443.144257,689.424988 444.069031,688.194580 
	C445.118622,686.996277 446.168182,685.797974 448.493896,684.323792 
	C453.810364,683.785767 455.999023,681.788879 455.828247,677.581482 
	C455.933716,676.923889 456.279907,676.437683 458.007202,676.001099 
	C461.338013,673.758850 463.528503,671.638306 465.718964,669.517761 
	C465.718964,669.517761 465.745087,669.725769 466.343994,669.725342 
	C467.926971,668.429504 468.911011,667.134155 469.895050,665.838806 
	C469.895050,665.838806 469.982727,665.994507 470.689880,665.967651 
	C474.642670,665.931458 476.096527,664.351746 475.640839,661.098511 
	C475.755890,660.512634 476.089050,660.105103 477.717041,659.851440 
	C479.874878,658.656006 480.955994,657.485046 482.037109,656.314148 
	C482.795044,655.558960 483.552948,654.803711 485.612366,653.963928 
	C491.221008,654.053223 493.901398,652.423645 493.778809,647.686768 
	C493.778809,647.686768 493.915009,647.917114 494.497009,647.875244 
	C496.630829,646.396606 498.182648,644.959839 499.734497,643.523071 
	C499.734497,643.523071 499.762024,643.728821 500.396606,643.750916 
	C505.716736,642.465393 510.136475,640.815430 511.699188,635.487122 
	C511.699188,635.487122 511.751160,635.717224 512.378418,635.738159 
	C517.720154,634.513062 522.064819,632.780762 523.768311,627.575073 
	C523.768311,627.575073 523.805908,627.790039 524.438599,627.794250 
	C528.636841,626.607971 532.740662,626.121033 533.541260,621.317200 
	C533.541260,621.317200 533.675171,621.689819 534.306091,621.726440 
	C541.663208,620.976562 546.010864,616.697144 549.820557,611.627747 
	C549.820557,611.627747 549.869568,611.836426 550.512817,611.872803 
	C555.656921,612.097717 558.258667,609.606506 559.877502,605.728455 
	C559.877502,605.728455 559.922668,605.919800 560.626343,605.934814 
	C568.945007,605.956726 573.990601,601.728149 578.019958,595.824524 
	C578.019958,595.824524 578.656616,595.059998 579.229980,595.759766 
	C580.895020,601.097656 578.468811,603.822693 574.879944,606.220215 
	C571.993042,608.148804 567.934326,609.240051 568.000183,613.894226 
z"/>
<path fill="#F58A1C" opacity="1.000000" stroke="none" 
	d="
M568.004944,614.357483 
	C567.934326,609.240051 571.993042,608.148804 574.879944,606.220215 
	C578.468811,603.822693 580.895020,601.097656 579.705200,595.612671 
	C594.490295,587.109741 609.373596,579.453735 625.511230,571.932007 
	C627.259399,572.798218 627.753174,573.530151 628.246948,574.262085 
	C610.156067,587.639832 592.079712,601.037292 573.948181,614.359680 
	C572.427673,615.476868 570.536255,616.089294 568.437988,616.800293 
	C567.958191,616.052185 567.941772,615.437622 568.004944,614.357483 
z"/>
<path fill="#F48F25" opacity="1.000000" stroke="none" 
	d="
M486.634521,978.466553 
	C488.742218,977.424316 490.655029,976.754333 487.967041,973.877869 
	C487.314606,973.179749 487.372345,971.817871 487.545532,970.416992 
	C490.722260,970.820190 493.771027,974.371338 495.975586,968.518616 
	C505.323456,977.940857 514.537659,988.037415 523.751831,998.133972 
	C523.369324,998.669617 522.986755,999.205261 522.604248,999.740845 
	C510.747375,992.820251 498.890503,985.899597 486.634521,978.466553 
z"/>
<path fill="#39A5EC" opacity="1.000000" stroke="none" 
	d="
M847.991455,383.925964 
	C839.807007,389.900238 831.622559,395.874542 822.787170,401.456604 
	C822.136230,401.064331 822.277710,400.159302 822.824219,399.827240 
	C825.795776,397.386230 828.220886,395.277283 830.920959,392.929199 
	C829.686768,392.521667 828.789429,392.225342 827.892090,391.929047 
	C833.394226,388.671204 838.896362,385.413361 845.553345,382.152710 
	C847.135925,382.741943 847.563660,383.333954 847.991455,383.925964 
z"/>
<path fill="#058DF1" opacity="1.000000" stroke="none" 
	d="
M790.715149,424.241089 
	C791.521790,418.696930 797.263000,417.593628 800.848022,414.412231 
	C804.824524,410.883453 810.385132,409.139648 816.008423,406.608887 
	C808.259705,412.465637 799.758606,418.332123 790.715149,424.241089 
z"/>
<path fill="#4FB0E9" opacity="1.000000" stroke="none" 
	d="
M926.165039,151.068390 
	C923.065918,155.378448 927.893921,157.471359 928.065430,161.124542 
	C926.527954,160.118866 924.789307,158.581696 923.395386,156.778030 
	C919.987671,152.368515 916.739319,147.835831 912.587585,142.216888 
	C919.266174,143.046143 922.780212,146.477509 926.165039,151.068390 
z"/>
<path fill="#ECB77D" opacity="1.000000" stroke="none" 
	d="
M628.946167,574.195312 
	C627.753174,573.530151 627.259399,572.798218 626.201416,571.687073 
	C630.936279,568.552002 635.628479,564.193909 642.812439,565.760193 
	C638.423401,568.549622 634.034424,571.339050 628.946167,574.195312 
z"/>
<path fill="#F58A1C" opacity="1.000000" stroke="none" 
	d="
M577.297363,595.912354 
	C573.990601,601.728149 568.945007,605.956726 560.545410,605.878967 
	C565.365479,602.538757 570.970093,599.269409 577.297363,595.912354 
z"/>
<path fill="#F58A1C" opacity="1.000000" stroke="none" 
	d="
M549.100403,611.720703 
	C546.010864,616.697144 541.663208,620.976562 534.175659,621.577515 
	C538.403015,618.199158 543.391663,615.006348 549.100403,611.720703 
z"/>
<path fill="#FE8803" opacity="1.000000" stroke="none" 
	d="
M615.260376,145.826416 
	C611.204041,149.442139 606.147095,148.018829 600.593506,146.681564 
	C604.901855,145.927322 609.752686,145.716370 615.260376,145.826416 
z"/>
<path fill="#0996FA" opacity="1.000000" stroke="none" 
	d="
M827.253906,392.042480 
	C828.789429,392.225342 829.686768,392.521667 830.920959,392.929199 
	C828.220886,395.277283 825.795776,397.386230 822.280151,399.523193 
	C820.728516,398.882202 820.267395,398.213196 819.806274,397.544250 
	C822.076111,395.748138 824.345886,393.952026 827.253906,392.042480 
z"/>
<path fill="#F58A1C" opacity="1.000000" stroke="none" 
	d="
M523.083984,627.688232 
	C522.064819,632.780762 517.720154,634.513062 512.277771,635.676636 
	C515.166443,632.996643 518.783020,630.399048 523.083984,627.688232 
z"/>
<path fill="#F58A1C" opacity="1.000000" stroke="none" 
	d="
M511.014069,635.589722 
	C510.136475,640.815430 505.716736,642.465393 500.302673,643.706665 
	C503.159119,640.991028 506.744049,638.341675 511.014069,635.589722 
z"/>
<path fill="#7EC0E5" opacity="1.000000" stroke="none" 
	d="
M848.598511,383.707825 
	C847.563660,383.333954 847.135925,382.741943 846.207153,381.896729 
	C848.832336,379.632996 851.958618,377.622467 855.084839,375.611938 
	C855.604187,376.260651 856.123535,376.909363 856.642883,377.558075 
	C854.163757,379.535278 851.684692,381.512451 848.598511,383.707825 
z"/>
<path fill="#058DF1" opacity="1.000000" stroke="none" 
	d="
M819.131165,397.653564 
	C820.267395,398.213196 820.728516,398.882202 821.733643,399.855255 
	C822.277710,400.159302 822.136230,401.064331 822.071838,401.517731 
	C820.574768,403.419006 819.142029,404.866913 817.288086,406.507751 
	C816.581421,404.590546 816.296021,402.480377 815.996826,399.577789 
	C816.807434,398.444550 817.631775,398.103729 819.131165,397.653564 
z"/>
<path fill="#F58A1C" opacity="1.000000" stroke="none" 
	d="
M493.123230,647.816956 
	C493.901398,652.423645 491.221008,654.053223 486.127960,653.801025 
	C487.717285,651.797485 490.092468,649.872314 493.123230,647.816956 
z"/>
<path fill="#F58A1C" opacity="1.000000" stroke="none" 
	d="
M559.202515,605.805176 
	C558.258667,609.606506 555.656921,612.097717 550.421631,611.816406 
	C552.633972,609.776428 555.580688,607.829163 559.202515,605.805176 
z"/>
<path fill="#F58A1C" opacity="1.000000" stroke="none" 
	d="
M532.874207,621.446045 
	C532.740662,626.121033 528.636841,626.607971 524.345947,627.736694 
	C526.482788,625.641541 529.344971,623.608215 532.874207,621.446045 
z"/>
<path fill="#F58A1C" opacity="1.000000" stroke="none" 
	d="
M465.076050,669.677246 
	C463.528503,671.638306 461.338013,673.758850 458.455139,675.891724 
	C459.986237,673.881592 462.209717,671.859131 465.076050,669.677246 
z"/>
<path fill="#F58A1C" opacity="1.000000" stroke="none" 
	d="
M455.208923,677.753845 
	C455.999023,681.788879 453.810364,683.785767 449.045654,684.076416 
	C450.410675,682.045349 452.500122,679.985779 455.208923,677.753845 
z"/>
<path fill="#F58A1C" opacity="1.000000" stroke="none" 
	d="
M433.422791,698.221130 
	C432.514526,699.986694 431.014221,701.946228 428.848022,703.987366 
	C429.731689,702.184387 431.281189,700.299744 433.422791,698.221130 
z"/>
<path fill="#F58A1C" opacity="1.000000" stroke="none" 
	d="
M439.428253,692.229858 
	C438.476929,693.991089 436.930634,695.944031 434.705811,697.955933 
	C435.629272,696.150391 437.231293,694.286011 439.428253,692.229858 
z"/>
<path fill="#0F93EF" opacity="1.000000" stroke="none" 
	d="
M1012.239319,537.137268 
	C1008.687805,534.711548 1009.980469,530.864563 1011.259277,526.560852 
	C1011.977905,529.456909 1012.185669,532.873962 1012.239319,537.137268 
z"/>
<path fill="#F58A1C" opacity="1.000000" stroke="none" 
	d="
M499.100525,643.639404 
	C498.182648,644.959839 496.630829,646.396606 494.386963,647.799072 
	C495.285522,646.428528 496.876068,645.092163 499.100525,643.639404 
z"/>
<path fill="#F58A1C" opacity="1.000000" stroke="none" 
	d="
M415.319641,718.117554 
	C414.895081,719.727905 413.885193,721.582520 412.213440,723.595398 
	C412.612457,721.956360 413.673370,720.159058 415.319641,718.117554 
z"/>
<path fill="#F58A1C" opacity="1.000000" stroke="none" 
	d="
M419.561646,713.026123 
	C419.110870,714.470825 418.143311,716.150513 416.524384,717.869812 
	C416.930328,716.359985 417.987610,714.810608 419.561646,713.026123 
z"/>
<path fill="#F58A1C" opacity="1.000000" stroke="none" 
	d="
M475.035461,661.318115 
	C476.096527,664.351746 474.642670,665.931458 470.620483,665.911377 
	C471.372711,664.433838 472.901398,662.985840 475.035461,661.318115 
z"/>
<path fill="#F58A1C" opacity="1.000000" stroke="none" 
	d="
M443.502258,688.345398 
	C443.144257,689.424988 442.219452,690.655457 440.666412,691.954468 
	C441.003937,690.847412 441.969727,689.671814 443.502258,688.345398 
z"/>
<path fill="#F58A1C" opacity="1.000000" stroke="none" 
	d="
M469.297729,665.961914 
	C468.911011,667.134155 467.926971,668.429504 466.249146,669.680603 
	C466.603729,668.452576 467.652069,667.268860 469.297729,665.961914 
z"/>
<path fill="#F58A1C" opacity="1.000000" stroke="none" 
	d="
M411.089233,723.799072 
	C410.874725,724.996826 410.088531,726.403015 408.628052,727.897461 
	C408.808380,726.659668 409.662964,725.333618 411.089233,723.799072 
z"/>
<path fill="#F48F25" opacity="1.000000" stroke="none" 
	d="
M488.351990,957.149841 
	C487.111359,956.200623 485.760101,954.605591 484.266724,952.366821 
	C485.496857,953.316772 486.869080,954.910400 488.351990,957.149841 
z"/>
<path fill="#F58A1C" opacity="1.000000" stroke="none" 
	d="
M481.443024,656.403442 
	C480.955994,657.485046 479.874878,658.656006 478.121948,659.797180 
	C478.583099,658.675842 479.716003,657.584351 481.443024,656.403442 
z"/>
<path fill="#F48F25" opacity="1.000000" stroke="none" 
	d="
M492.570038,962.869019 
	C491.821136,962.681030 490.953033,961.925903 490.076782,960.529419 
	C490.862701,960.692627 491.656799,961.497192 492.570038,962.869019 
z"/>
<path fill="#F58A1C" opacity="1.000000" stroke="none" 
	d="
M423.105133,709.299805 
	C423.259094,709.783081 422.837891,710.574707 421.739258,711.544434 
	C421.551239,711.017761 422.040588,710.312927 423.105133,709.299805 
z"/>
<path fill="#F48F25" opacity="1.000000" stroke="none" 
	d="
M494.388611,965.209167 
	C493.902679,965.339172 493.285217,964.942932 492.635254,963.968384 
	C493.154205,963.821045 493.705658,964.251953 494.388611,965.209167 
z"/>
<path fill="#F48F25" opacity="1.000000" stroke="none" 
	d="
M481.288269,974.970825 
	C481.724915,974.711853 482.548279,974.963684 483.705200,975.794067 
	C483.250824,976.075562 482.462921,975.778503 481.288269,974.970825 
z"/>
</svg>